<svg id="Layer_2" xmlns="http://www.w3.org/2000/svg" viewBox="0 0 21.5 21.5" width="20" height="22"><defs><style>.cls-1{fill:none;stroke:#bbbbc4;stroke-miterlimit:10;stroke-width:1.5px;}.cls-2{fill:#bbbbc4;stroke-width:0px;}</style></defs><g id="Layer_1-2"><rect class="cls-1" x=".75" y=".75" width="20" height="20" rx="5" ry="5"/><circle class="cls-2" cx="8.75" cy="6.18" r="1.5"/><path class="cls-2" d="M12.75,9.83c-.44.04-.85.17-1.21.37-.42.24-.9.24-1.32,0-.36-.21-.78-.34-1.21-.37-1.79-.15-3.26,1.43-3.26,3.22v1.88c0,.49.4.89.89.89h8.48c.49,0,.89-.4.89-.89v-1.88c0-1.79-1.47-3.37-3.26-3.22Z"/><circle class="cls-2" cx="13.01" cy="6.18" r="1.5"/></g></svg>