<svg xmlns="http://www.w3.org/2000/svg" viewBox="0 0 21.5 21.5">
<path d="M19.87,1.8c-1.08-1.16-2.61-1.8-4.43-1.8H6.06c-1.82,0-3.35.65-4.43,1.8C.56,2.95,0,4.54,0,6.34v8.83c0,1.79.56,3.38,1.63,4.53,1.08,1.16,2.61,1.8,4.43,1.8h9.37c1.82,0,3.36-.65,4.43-1.8,1.07-1.15,1.63-2.74,1.63-4.53V6.34c0-1.79-.56-3.38-1.63-4.53ZM20,15.16c0,1.48-.46,2.68-1.23,3.51-.76.82-1.88,1.33-3.34,1.33H6.06c-1.45,0-2.57-.51-3.34-1.33-.77-.82-1.23-2.03-1.23-3.51V6.34c0-1.48.46-2.68,1.23-3.51.76-.82,1.89-1.33,3.33-1.33h9.37c1.45,0,2.57.51,3.34,1.33.77.82,1.23,2.03,1.23,3.51v8.83Z"/>
<rect x="9.25" y="8.5" width="3" height="9" rx=".75" ry=".75"/>
<path d="M7,8.5h0c-.41,0-.75.34-.75.75v6.75c0,.83.67,1.5,1.5,1.5v-8.25c0-.41-.34-.75-.75-.75Z"/>
<path d="M14.5,8.5c-.41,0-.75.34-.75.75v8.25c.83,0,1.5-.67,1.5-1.5v-6.75c0-.41-.34-.75-.75-.75h0Z"/>
<path d="M13.45,5.5c-.55,0-1.03-.3-1.3-.74s-.69-.76-1.2-.76h-.41c-.51,0-.94.32-1.2.76s-.74.74-1.3.74h-2.25c-.41,0-.75.34-.75.75h0c0,.41.34.75.75.75h9.89c.41,0,.75-.34.75-.75h0c0-.41-.34-.75-.75-.75h-2.25Z"/>
</svg>