<svg viewBox="0 0 20 22" fill="currentColor" xmlns="http://www.w3.org/2000/svg"><path d="M8,.51c.37-.33.84-.51,1.34-.51s.97.18,1.34.51l7.34,6.59c.21.19.38.42.49.67.11.26.17.53.17.81v9.41c0,.53-.21,1.04-.59,1.41s-.88.59-1.41.59h-3.33c-.53,0-1.04-.21-1.41-.59-.38-.38-.59-.88-.59-1.41v-4.67c0-.18-.07-.35-.2-.47s-.29-.2-.47-.2h-2.67c-.18,0-.35.07-.47.2-.13.13-.2.29-.2.47v4.67c0,.53-.21,1.04-.59,1.41-.38.38-.88.59-1.41.59h-3.33c-.53,0-1.04-.21-1.41-.59-.38-.38-.59-.88-.59-1.41v-9.41c0-.57.24-1.11.66-1.49L8,.51ZM9.78,1.5c-.12-.11-.28-.17-.45-.17s-.32.06-.45.17L1.56,8.1c-.07.06-.13.14-.16.22-.04.09-.06.18-.06.27v9.41c0,.18.07.35.2.47.13.13.29.2.47.2h3.33c.18,0,.35-.07.47-.2.13-.13.2-.29.2-.47v-4.67c0-.53.21-1.04.59-1.41.38-.38.88-.59,1.41-.59h2.67c.53,0,1.04.21,1.41.59.38.38.59.88.59,1.41v4.67c0,.18.07.35.2.47.12.13.29.2.47.2h3.33c.18,0,.35-.07.47-.2.13-.13.2-.29.2-.47v-9.41c0-.09-.02-.19-.06-.27-.04-.09-.09-.16-.16-.22L9.78,1.5Z" stroke="none"/></svg>