<svg width="20" height="22" viewBox="0 0 21.5 21.5" fill="currentColor" xmlns="http://www.w3.org/2000/svg">
<path d="M1.63,1.8C2.71.65,4.25,0,6.06,0h9.37c1.82,0,3.36.65,4.43,1.8,1.07,1.15,1.63,2.74,1.63,4.53v8.83c0,1.79-.56,3.38-1.63,4.53-1.08,1.16-2.61,1.8-4.43,1.8H6.06c-1.82,0-3.36-.65-4.43-1.8-1.07-1.15-1.63-2.74-1.63-4.53V6.34c0-1.79.56-3.38,1.63-4.53ZM2.73,2.83c-.77.83-1.23,2.03-1.23,3.51v8.83c0,1.48.46,2.68,1.23,3.51.76.82,1.88,1.33,3.34,1.33h9.37c1.45,0,2.57-.51,3.34-1.33.77-.82,1.23-2.03,1.23-3.51V6.34c0-1.48-.46-2.68-1.23-3.51-.76-.82-1.88-1.33-3.34-1.33H6.06c-1.45,0-2.57.51-3.33,1.33ZM10.79,4.92c.41,0,.75.34.75.75v10.14c0,.41-.34.75-.75.75s-.75-.34-.75-.75V5.67c0-.41.34-.75.75-.75ZM6.12,8.2c.41,0,.75.34.75.75v6.86c0,.41-.34.75-.75.75s-.75-.34-.75-.75v-6.86c0-.41.34-.75.75-.75ZM15.38,11.83c.41,0,.75.34.75.75v3.24c0,.41-.34.75-.75.75s-.75-.34-.75-.75v-3.24c0-.41.34-.75.75-.75Z" stroke="none"/>
</svg>