<svg xmlns="http://www.w3.org/2000/svg" viewBox="0 0 21.5 21.5" width="20" height="22">
<rect x=".75" y=".75" width="20" height="20" rx="5" ry="5" fill="none"/>
<path d="M7.75,5.47c.69,0,1.25.56,1.25,1.25s-.56,1.25-1.25,1.25-1.25-.56-1.25-1.25.56-1.25,1.25-1.25M7.75,3.97c-1.52,0-2.75,1.23-2.75,2.75s1.23,2.75,2.75,2.75,2.75-1.23,2.75-2.75-1.23-2.75-2.75-2.75h0Z" stroke="none"/>
<path d="M6.4,11.82c.41.22.88.35,1.35.35s.94-.12,1.35-.35c.46.16.78.6.78,1.11v3.09h-4.27v-3.09c0-.51.33-.95.78-1.11M8.71,10.26c-.26.27-.61.41-.96.41s-.7-.14-.96-.41c-1.47,0-2.68,1.2-2.68,2.68v3.26c0,.74.6,1.34,1.34,1.34h4.59c.74,0,1.34-.6,1.34-1.34v-3.26c0-1.47-1.2-2.68-2.68-2.68h0Z" stroke="none"/>
<path d="M13.75,5.47c.69,0,1.25.56,1.25,1.25s-.56,1.25-1.25,1.25-1.25-.56-1.25-1.25.56-1.25,1.25-1.25M13.75,3.97c-1.52,0-2.75,1.23-2.75,2.75s1.23,2.75,2.75,2.75,2.75-1.23,2.75-2.75-1.23-2.75-2.75-2.75h0Z" stroke="none"/>
<path d="M12.4,11.82c.41.22.88.35,1.35.35s.94-.12,1.35-.35c.46.16.78.6.78,1.11v3.09h-4.27v-3.09c0-.51.33-.95.78-1.11M14.71,10.26c-.26.27-.61.41-.96.41s-.7-.14-.96-.41c-1.47,0-2.68,1.2-2.68,2.68v3.26c0,.74.6,1.34,1.34,1.34h4.59c.74,0,1.34-.6,1.34-1.34v-3.26c0-1.47-1.2-2.68-2.68-2.68h0Z" stroke="none"/>
</svg>