<svg id="Layer_3" xmlns="http://www.w3.org/2000/svg" viewBox="0 0 160.35 202.38">
<path  d="M140.24,148.1c5.13-3.19,8.56-8.87,8.56-15.33,0-9.94-8.09-18.03-18.03-18.03s-18.02,8.09-18.02,18.03c0,6.46,3.42,12.14,8.55,15.33-5.63,1.91-10.51,5.46-14.04,10.09-4.5-5.36-10.56-9.37-17.46-11.33,6.89-3.51,11.62-10.68,11.62-18.93,0-11.71-9.53-21.24-21.25-21.24s-21.24,9.53-21.24,21.24c0,8.25,4.73,15.42,11.61,18.93-6.91,1.96-12.96,5.97-17.46,11.34-3.52-4.64-8.41-8.21-14.05-10.11,5.14-3.17,8.57-8.86,8.57-15.33,0-9.94-8.09-18.02-18.03-18.02s-18.02,8.08-18.02,18.02c0,6.47,3.43,12.16,8.57,15.33-11.68,3.94-20.12,15.02-20.12,28.02v9.72c0,4.69,3.81,8.5,8.5,8.5h36.33c.23,4.47,3.95,8.05,8.49,8.05h53.71c4.54,0,8.26-3.58,8.49-8.05h36.33c4.68,0,8.5-3.81,8.5-8.5v-9.72c0-13-8.43-24.06-20.11-28.01ZM65.93,127.93c0-7.85,6.39-14.24,14.24-14.24s14.25,6.39,14.25,14.24-6.39,14.25-14.25,14.25-14.24-6.39-14.24-14.25ZM18.55,132.76c0-6.08,4.95-11.02,11.02-11.02s11.03,4.94,11.03,11.02-4.95,11.02-11.03,11.02-11.02-4.94-11.02-11.02ZM44.82,180.89v6.44H8.5c-.83,0-1.5-.67-1.5-1.5v-9.72c0-12.45,10.13-22.58,22.57-22.58,8.18,0,15.36,4.37,19.32,10.9-2.59,4.92-4.07,10.52-4.07,16.46ZM108.53,193.88c0,.12,0,.24-.05.36-.15.66-.74,1.14-1.45,1.14h-53.71c-.71,0-1.3-.48-1.45-1.14-.04-.12-.05-.24-.05-.36v-12.99c0-1.47.11-2.91.33-4.31.66-4.35,2.32-8.37,4.73-11.83,5.11-7.38,13.65-12.22,23.29-12.22s18.18,4.84,23.3,12.22c2.41,3.46,4.07,7.48,4.73,11.83.22,1.4.33,2.84.33,4.31v12.99ZM119.75,132.77c0-6.08,4.95-11.03,11.02-11.03s11.03,4.95,11.03,11.03-4.95,11.02-11.03,11.02-11.02-4.95-11.02-11.02ZM153.35,185.83c0,.83-.68,1.5-1.5,1.5h-36.32v-6.44c0-5.94-1.47-11.54-4.07-16.46,3.96-6.53,11.14-10.9,19.31-10.9,12.45,0,22.58,10.13,22.58,22.58v9.72Z"/>
<path d="M80.18,28.89c13.16,0,23.87,10.71,23.87,23.87s-10.71,23.87-23.87,23.87-23.87-10.71-23.87-23.87,10.71-23.87,23.87-23.87M80.18,21.89c-17.05,0-30.87,13.82-30.87,30.87s13.82,30.87,30.87,30.87,30.87-13.82,30.87-30.87-13.82-30.87-30.87-30.87h0Z"/>
<path d="M80.17,32.47c-11.2,0-20.28,9.08-20.28,20.28s9.08,20.28,20.28,20.28,20.28-9.08,20.28-20.28-9.08-20.28-20.28-20.28ZM80.18,43.77c-4.96,0-8.99,4.03-8.99,8.99,0,1.38-1.12,2.5-2.5,2.5s-2.5-1.12-2.5-2.5c0-7.71,6.27-13.99,13.99-13.99,1.38,0,2.5,1.12,2.5,2.5s-1.12,2.5-2.5,2.5Z"/>
<path d="M32.39,16.65c1.35,0,2.81.37,4.34,1.08l1.42.67h84.05l1.42-.67c1.53-.72,2.99-1.08,4.34-1.08,5.48,0,8.75,6.01,8.75,11.83v44.31c0,8.86-7.21,16.08-16.08,16.08H39.71c-8.86,0-16.08-7.21-16.08-16.08V28.48c0-5.81,3.27-11.83,8.75-11.83M127.96,9.65c-2.3,0-4.76.55-7.32,1.75H39.71c-2.56-1.21-5.02-1.75-7.32-1.75-9.15,0-15.75,8.64-15.75,18.83v44.31c0,12.75,10.33,23.08,23.08,23.08h80.92c12.75,0,23.08-10.33,23.08-23.08V28.48c0-10.18-6.6-18.83-15.75-18.83h0Z"/>
<circle  cx="38.02" cy="25.71" r="4.78"/>
<path  d="M96.26,7c.64,0,1.24.32,1.59.86l1.74,2.68h-38.81l1.74-2.68c.35-.54.94-.86,1.59-.86h32.16M96.26,0h-32.16c-3.01,0-5.82,1.53-7.46,4.06l-8.74,13.48h64.57l-8.74-13.48c-1.64-2.53-4.45-4.06-7.46-4.06h0Z"/>
<path  d="M127.46,25.89c.26,0,.48.23.48.48v3.65c0,.26-.23.48-.48.48h-10.52c-.26,0-.48-.23-.48-.48v-3.65c0-.26.23-.48.48-.48h10.52M127.46,21.89h-10.52c-2.47,0-4.48,2.02-4.48,4.48v3.65c0,2.47,2.02,4.48,4.48,4.48h10.52c2.47,0,4.48-2.02,4.48-4.48v-3.65c0-2.47-2.02-4.48-4.48-4.48h0Z"/>
</svg>