<svg viewBox="0 0 38.51 44.31" xmlns="http://www.w3.org/2000/svg">
  <path d="m9.43 13.95-1.57.88c-.16.09-.26.26-.26.44v1.8h.5v-1.51c0-.18.1-.35.25-.43l1.32-.75v5.13c.01.49-.18.95-.52 1.3-.28.28-.67.46-1.06.51v.5c.45-.04.87-.22 1.22-.5.06-.05.13-.1.19-.16.44-.44.68-1.03.68-1.65v-5.12c0-.38-.42-.62-.75-.44Zm-2.8-5.89c0-.18.1-.35.25-.43l1.3-.75v4.3l.51-.29-.02-4.01c0-.38-.42-.62-.75-.43L.25 10.87c-.16.09-.25.26-.25.44l.05 8.19v.06c.02.6.25 1.16.68 1.59.06.06.13.11.19.16.23.18.48.31.75.4.15.05.31.09.47.1h.43v-.5s-.28.01-.43 0c-.16-.01-.32-.08-.47-.14-.22-.09-.42-.21-.59-.37-.33-.34-.52-.78-.53-1.25v-.05l-.04-7.9c0-.18.09-.34.25-.43l1.31-.76v4.3l.5-.28v-4.02c0-.18.11-.34.26-.43l1.23-.71v4.3l.6-.34V9.22c0-.18.08-.34.24-.43l1.21-.71v4.3l.53-.3V8.07Zm14.79 1.49-1.55-.92c-.16-.09-.35-.09-.51 0l-1.56.9.25.43 1.31-.75c.16-.09.35-.09.5 0l1.3.77-4.44 2.57c-.42.25-.92.31-1.39.19-.38-.1-.73-.35-.97-.66l-.43.25c.26.37.63.64 1.04.81.07.03.15.06.23.08.6.16 1.23.07 1.77-.24l4.43-2.57c.33-.19.33-.67 0-.86Zm3.7-5.37c.16-.09.35-.09.5 0l1.29.75-3.72 2.16.5.29 3.46-2.02c.33-.19.33-.67 0-.86L19.5.07c-.16-.09-.35-.09-.5 0l-7.07 4.14-.05.03c-.51.32-.88.8-1.04 1.38-.02.08-.03.17-.04.24-.04.29-.03.57.03.85.03.15.08.31.15.46.05.1.21.37.21.37l.43-.25s-.15-.23-.21-.37c-.07-.15-.09-.32-.11-.48-.03-.24-.03-.47.03-.7.13-.46.42-.84.82-1.08l.04-.03L19.01.65c.15-.09.35-.09.5 0l1.32.75-3.72 2.16.49.28 3.49-2c.15-.09.35-.09.5 0l1.23.71-3.72 2.16.59.34 3.47-2.01c.15-.09.34-.09.5 0l1.22.7-3.72 2.16.52.3 3.47-2.01Zm6.05 13.5.02-1.8c0-.18-.09-.35-.25-.44l-1.56-.9-.25.43 1.31.75c.16.09.25.26.25.44v1.51l-4.46-2.56c-.42-.25-.73-.64-.86-1.11-.1-.38-.06-.81.09-1.17l-.43-.25c-.19.41-.24.86-.18 1.31.01.08.02.16.04.24.16.6.55 1.1 1.09 1.41l4.44 2.55c.33.19.74-.05.75-.43Zm6.5.52c.16.09.25.26.25.43v1.5l-3.73-2.14v.58l3.48 1.99c.33.19.75-.05.75-.43v-8.86c0-.18-.09-.35-.25-.43l-7.12-4.05-.05-.03c-.53-.28-1.13-.36-1.72-.21-.08.02-.16.06-.23.08-.27.11-.51.26-.72.45-.12.1-.23.22-.32.36-.06.09-.21.37-.21.37l.43.25s.13-.25.21-.37c.09-.13.23-.24.36-.34.19-.15.39-.26.62-.33.46-.12.94-.06 1.35.17l.04.03 6.86 3.92c.16.09.25.25.25.43v1.52l-3.72-2.14v.56l3.48 2.02c.15.09.25.25.25.43v1.42l-3.73-2.14v.68l3.48 2c.15.09.25.25.25.43v1.4l-3.72-2.14v.6l3.48 2Zm-8.58 12.15 1.57-.88c.16-.09.26-.26.26-.44v-1.8h-.5v1.51c0 .18-.1.35-.25.43l-1.32.75v-5.13c-.01-.49.18-.95.52-1.3.28-.28.67-.46 1.06-.51v-.5c-.45.04-.87.22-1.22.5-.06.05-.13.1-.19.16-.44.44-.68 1.03-.68 1.65v5.12c0 .38.42.62.75.44Zm2.79 5.88c0 .18-.1.35-.25.43l-1.3.75v-4.3l-.51.29.02 4.01c0 .38.42.62.75.43l7.67-4.42c.16-.09.25-.26.25-.44l-.05-8.19v-.06c-.02-.6-.25-1.16-.68-1.59-.06-.06-.13-.11-.19-.16-.23-.18-.48-.31-.75-.4-.15-.05-.31-.09-.47-.1h-.43v.5s.28-.01.43 0c.16.01.32.08.47.14.22.09.42.21.59.37.33.34.52.78.53 1.25v.05l.04 7.9c0 .18-.09.34-.25.43l-1.31.76v-4.3l-.5.28v4.02c0 .18-.11.34-.26.43l-1.23.71v-4.3l-.6.34v4.01c0 .18-.08.34-.24.43l-1.21.71v-4.3l-.53.3v4.01Zm-14.79-1.47 1.55.92c.16.09.35.09.51 0l1.56-.9-.25-.43-1.31.75c-.16.09-.35.09-.5 0l-1.3-.77 4.44-2.57c.42-.25.92-.31 1.39-.19.38.1.73.35.97.66l.43-.25c-.26-.37-.63-.64-1.04-.81-.07-.03-.15-.06-.23-.08-.6-.16-1.23-.07-1.77.24l-4.43 2.57c-.33.19-.33.67 0 .86Zm-3.7 5.37c-.16.09-.35.09-.5 0l-1.29-.75 3.72-2.16-.5-.29-3.46 2.02c-.33.19-.33.67 0 .86l7.67 4.43c.16.09.35.09.5 0l7.07-4.14.05-.03c.51-.32.88-.8 1.04-1.38.02-.08.03-.17.04-.24.04-.29.03-.57-.03-.85-.03-.15-.08-.31-.15-.46-.05-.1-.21-.37-.21-.37l-.43.25s.15.23.21.37c.07.15.09.32.11.48.03.24.03.47-.03.7-.13.46-.42.84-.82 1.08l-.04.03-6.82 3.98c-.15.09-.35.09-.5 0l-1.32-.75 3.72-2.16-.49-.28-3.49 2c-.15.09-.35.09-.5 0l-1.23-.71 3.72-2.16-.59-.34-3.47 2.01c-.15.09-.34.09-.5 0l-1.22-.7 3.72-2.16-.52-.3-3.47 2.01ZM7.25 26.58l-.02 1.8c0 .18.09.35.25.44l1.56.9.25-.43-1.31-.75c-.16-.09-.25-.26-.25-.44v-1.51l4.46 2.56c.42.25.73.64.86 1.11.1.38.06.81-.09 1.17l.43.25c.19-.41.24-.86.18-1.31-.01-.08-.02-.16-.04-.24-.16-.6-.55-1.1-1.09-1.41L8 26.17c-.33-.19-.74.05-.75.43Zm-6.5-.52c-.16-.09-.25-.26-.25-.43v-1.5l3.73 2.14v-.58L.75 23.7c-.33-.19-.75.05-.75.43v8.86c0 .18.09.35.25.43l7.12 4.05.05.03c.53.28 1.13.36 1.72.21.08-.02.16-.06.23-.08.27-.11.51-.26.72-.45.12-.1.23-.22.32-.36.06-.09.21-.37.21-.37l-.43-.25s-.13.25-.21.37c-.09.13-.23.24-.36.34-.19.15-.39.26-.62.33-.46.12-.94.06-1.35-.17l-.04-.03-6.86-3.92c-.16-.09-.25-.25-.25-.43v-1.52l3.72 2.14v-.56L.74 30.73c-.15-.09-.25-.25-.25-.43v-1.42l3.73 2.14v-.68l-3.48-2c-.15-.09-.25-.25-.25-.43v-1.4l3.72 2.14v-.6l-3.48-2Z"/>
</svg>
