<?xml version="1.0" encoding="UTF-8"?>
<svg
    id="Layer_2"
    xmlns="http://www.w3.org/2000/svg"
    viewBox="0 0 371.48 65.5"
  >
    <defs>
      <style>.cls-1{fill:#000;stroke-width:0px;}</style>
    </defs>
    <g id="Layer_3">
      <path
        class="cls-1"
        d="M52.04,14S47.04,0,30.04,0c-.42,0-.84,0-1.25.03C18.87.44,11.12,8.8,10.97,18.73l-.28,18.35c-.02,1.1-.91,1.98-2.01,1.98H2c-1.1,0-2,.9-2,2v6.43c0,1.1.9,2,2,2h7.53c1.11,0,2.01.9,2.01,2.01v11.99c0,1.1.9,2,2,2h9.75c1.12,0,2.02-.91,2-2.03-.05-2.83-.15-7.95-.21-11-.02-1.22,1.03-2.16,2.24-2.02,2.93.34,6-.12,8.48-.73,3.55-.87,6.89-2.46,9.71-4.78,14.98-12.32,6.52-30.93,6.52-30.93ZM39.04,31s-3,7-14,7v-19.99c0-.94.2-1.88.64-2.71.76-1.45,2.32-3.3,5.36-3.3,0,0,5-1,8,4,0,0,5,5.91,0,15Z"
      />
      <path
        class="cls-1"
        d="M76.73,15c-10.22,0-18.5,8.06-18.5,18s8.28,18,18.5,18,18.5-8.06,18.5-18-8.28-18-18.5-18ZM76.73,40c-3.59,0-6.5-3.36-6.5-7.5s2.91-7.5,6.5-7.5,6.5,3.36,6.5,7.5-2.91,7.5-6.5,7.5Z"
      />
      <path
        class="cls-1"
        d="M117.54,15c-10.22,0-18.5,8.06-18.5,18s8.28,18,18.5,18,18.5-8.06,18.5-18-8.28-18-18.5-18ZM117.54,40c-3.59,0-6.5-3.36-6.5-7.5s2.91-7.5,6.5-7.5,6.5,3.36,6.5,7.5-2.91,7.5-6.5,7.5Z"
      />
      <path
        class="cls-1"
        d="M219.12,15c-10.22,0-18.5,8.06-18.5,18s8.28,18,18.5,18,18.5-8.06,18.5-18-8.28-18-18.5-18ZM219.12,40c-3.59,0-6.5-3.36-6.5-7.5s2.91-7.5,6.5-7.5,6.5,3.36,6.5,7.5-2.91,7.5-6.5,7.5Z"
      />
      <path
        class="cls-1"
        d="M145.67,1.65h6.03c1.1,0,2,.9,2,2.01v45.5c0,1.11-.9,2-2,2h-6.03c-1.1,0-2-.9-2-2.01V3.65c0-1.11.9-2,2-2Z"
      />
      <path
        class="cls-1"
        d="M195.56,26s-3-10-12-11c-6.01-.67-9.19,1.92-10.41,3.25-.21.23-.59.09-.59-.22h0c0-1.12-.91-2.02-2.02-2.01l-7.25.08c-1.1.01-1.98.91-1.98,2.01l.24,45.4c0,1.1.9,1.99,2,1.99h6.01c1.1,0,2-.9,2-2v-16.5s9,8,19,0,5-21,5-21ZM180.12,40.5c-3.31,0-6-3.36-6-7.5s2.69-7.5,6-7.5,6,3.36,6,7.5-2.69,7.5-6,7.5Z"
      />
      <path
        class="cls-1"
        d="M267.29,26.42l3.59-4.78c.7-.94.46-2.28-.53-2.89-4.07-2.52-14.38-7.37-23.52,1.23-8.48,7.97-5.03,17.53-2.49,22.18,1.17,2.14,2.8,3.99,4.8,5.38,3.29,2.3,9.05,4.97,16,2.44,0,0,2.63-.66,5.22-2.5,1-.71,1.11-2.17.24-3.04l-3.42-3.42c-.58-.58-1.46-.75-2.21-.42-1.99.89-6.18,2.03-9.83-1.62-5-5-2-10-2-10,0,0,3.56-7.13,11.53-2.04.87.55,2.02.31,2.64-.51Z"
      />
      <path
        class="cls-1"
        d="M277.1.91l6,.05c1.1,0,1.98.9,1.98,2v24.53c0,.47.59.68.88.32l9.21-11.11c.38-.46.94-.72,1.54-.72h6.58c1.71,0,2.63,2.01,1.52,3.3l-8.99,10.48c-.61.71-.65,1.75-.08,2.5l11.66,15.54c.99,1.32.05,3.2-1.6,3.2h-7.57c-.65,0-1.27-.32-1.64-.85l-10.38-14.85c-.28-.4-.91-.2-.91.29l.08,13.39c0,1.12-.9,2.02-2.02,2.01l-6.3-.06c-1.1-.01-1.98-.9-1.98-2V2.91c0-1.11.9-2.01,2.02-2Z"
      />
      <path
        class="cls-1"
        d="M325.8,15.87c-.11,0-.23,0-.34,0-9.75.24-16.99,8.78-16.3,18.51.32,4.56,2.24,9.84,8.33,13.58,13,8,24.05-2.32,24.05-2.32l-5.83-6.74c-2.94,2.42-6.22,3.06-6.22,3.06-8,2-11-6-11-6h24.49c.28,0,.51-.24.51-.52-.27-21.45-17.69-19.58-17.69-19.58ZM318.49,28.96s1.62-4.71,7.81-4.71,8.33,4.71,8.33,4.71h-16.14Z"
      />
      <path
        class="cls-1"
        d="M351.3,15.49v-5c0-1.1.9-1.99,2-1.97l6.08.07c1.08.01,1.95.89,1.95,1.97v5.08c0,1.09.88,1.97,1.97,1.97h5.74c1.09,0,1.97.88,1.97,1.97v3.96c0,1.09-.88,1.97-1.97,1.97h-5.74c-1.09,0-1.97.88-1.97,1.97v12.03s0,3.09,4,3.09h4.18c1.09,0,1.97.88,1.97,1.97v4.23c0,1.03-.79,1.88-1.82,1.97-2.51.2-7.04.44-9.8-.17-4.53-1-8.5-3.04-8.56-8.14-.03-2.29-.01-11.04,0-15.01,0-1.09-.88-1.97-1.97-1.97h-.05c-1.09,0-1.97-.88-1.97-1.97v-4.08c0-1.1.9-1.99,2-1.97h0c1.1.02,2-.87,2-1.97Z"
      />
    </g>
  </svg>