<svg viewBox="0 0 30 42.51" xmlns="http://www.w3.org/2000/svg">
  <path d="M28.79 27.42s-.2.89-.91 1.79c-.08.08-.12.14-.18.2-.16.22-.41.39-.41.39-.37.24-.65.35-.9.41.2-1.42.31-3.07.31-3.07v-.06l.37-.35.22-.2c.14-.51.31-1.36.47-2.22.02-.04.04-.1.04-.14.16-.71.31-1.4.41-1.89.41.3.79.81.9 1.85.2 1.81-.33 3.29-.33 3.29ZM13.42 8.32s2.62-1.79 5.88-1.66c3.25.13 3.86 2.47 3.86 2.47s.26-2.21-2.53-3.47c-2.8-1.26-5.88-.4-8.8.78l2.07-1.2c1.12-.65 2.37-1.04 3.66-1.03.91 0 1.91.13 2.89.6 0 0 1.09.41 1.93 1.31.84.9 1.01 1.78 1.01 1.78l.95-2.3v-.04c-.02-.13-.04-.28-.08-.43-.01-.05-.03-.12-.05-.17-.04-.13-.1-.29-.17-.45-.03-.07-.06-.14-.1-.22-.12-.25-.26-.52-.47-.85v-.01C22.55 1.95 20.73.76 19.03.27 18.36.08 17.42 0 16.43 0c-1.64-.01-3.36.16-3.89.26-.49.1-2.01.6-3.52 1.11-.21.07-.41.14-.61.21-.44.15-.86.29-1.25.43-.37.13-.71.25-.99.34-.59.21-1.31.31-1.99.36-.53.04-1.04.05-1.45.05-.56 0-.94-.04-.94-.04.04.61 1.54 1.61 2.13 1.59.59-.03.58.29.58.29-1.98.93-2.51 2.41-3.3 3.76C.42 9.71.03 13.08 0 14.14v.01c0 .22 0 .48.02.76 2.22-.04 3.56-.44 5.72-1.47 2.17-1.03 7.67-5.12 7.67-5.12ZM3.35 30.49c-.37-.16-.41-.18-.83-.51l-.37-.37c-.06-.06-.1-.12-.16-.2-.71-.89-.91-1.77-.91-1.77s-.53-1.46-.33-3.25c.12-1.06.55-1.55.87-1.77 0 .39.08.96.18 1.5.08.39.16.79.2 1 .12.59.61 1.4.61 1.4.06.16.14.24.2.28.1.08.2.08.24.08v-.02s.04 1.79.26 3.09c0 .26.06.55.06.55Z" style="fill:#e0e089;"/>
  <path d="m26.86 25.31-.04.31-.06.55v.28l-.02.06-.04.3v.06s-.12 1.65-.31 3.07c-.08.61-.16 1.18-.26 1.55 0 .04-.02.1-.04.14-.43 1.67-1.81 4.47-1.81 4.47-.39.55-.65.91-.89 1.2l-.04.04-.04.06-.08.08c-.43.49-.73.77-1.61 1.65-.04.04-.1.08-.14.12-1.63 1.4-3.4 3.15-6.71 3.27h-.06c-3.17-.12-4.96-1.79-6.34-3.03-.02-.02-.06-.04-.08-.08-.18-.16-.37-.37-.57-.57-.12-.1-.22-.2-.31-.31-.16-.14-.3-.31-.45-.47-.18-.2-.33-.37-.49-.57h-.02c-.57-.69-1.14-1.46-1.55-2.24-.65-1.26-1.1-2.83-1.4-4.17v-.04c-.1-.43-.16-.85-.22-1.2-.18-1.12-.22-2.46-.26-3.05v-.28l-.08-3.17v-.49l-.02-.51c0-.06.02-.14.02-.22v-.04c.02-.2.02-.45.04-.73.02-.14.02-.3.04-.45.02-.22.02-.45.04-.67.02-.31.04-.63.06-.96.04-.41.08-.83.1-1.18.02-.14.02-.28.04-.39.02-.18.04-.35.06-.51.08-.45.22-.81.31-1.06l.02-.02s.02-.06.02-.08c.08-.18.16-.3.22-.35.06-.08.1-.12.1-.12v-.02c.45-.04.85-.1 1.2-.18.22-.04.39-.1.57-.16 1.16-.35 1.89-.96 3.23-1.75.61-.35 1.4-.9 2.2-1.5.94-.69 1.91-1.46 2.6-1.99.57-.45.94-.77.94-.77v.91c-.69.41-1.61 1.22-2.14 1.79-.53.57-2.66 1.91-2.66 1.91-1.77 1.34-4.8 2.05-5.86 2.26-.16.02-.26.04-.31.06h.12c2.5.22 3.03-.06 5.21-.83 2.24-.79 4.7-3.05 7.34-4.78.96-.61 2.03-.81 3.07-.69.31 0 .63.06.94.14.31.06.61.16.9.28.14.04.28.1.41.18.14.04.26.1.37.16.12.06.26.14.37.22.14.08.28.16.39.26.37.24.69.53.89.81.55.67 1.06 1.61 1.48 2.72.14.3.24.59.33.89.1.28.18.55.28.83.02.1.06.2.08.3.2.61.35 1.28.49 1.97.02.12.04.26.06.39.04.26.08.53.12.81.06.41.12.85.14 1.26.04.59.06 1.2.08 1.79.04.94.04 1.85.02 2.54Z" style="fill:#38b7e8;"/>
  <path d="M25.56 22.63c-1.08-3.97-7.5-4.03-8.77-.18-.47-.35-1.18-.71-1.93-.73-.81.02-1.5.45-1.93.79-1.28-3.82-7.87-3.99-8.76.1H2.93v.98h1.16c0 .12-.02.24-.02.35.63 5.76 8.62 5.71 9.09-.1 0-.12-.04-.24-.04-.33l.02.02s.85-.87 1.71-.89c.85 0 1.59.65 1.73.83 0 .18-.04.31-.04.47.3 6 8.97 5.88 9.19-.1 0-.08-.02-.16-.02-.24h1.15l-.03-.98h-1.27Zm-20.8 1.32c-.41-5.15 7.83-5.17 7.77-.1-.31 4.92-7.32 4.98-7.77.1Zm12.56 0c-.2-4.94 7.79-5.13 7.65-.1-.33 4.92-7.34 5.04-7.65.1Z" style="fill:#fff;"/>
  <path d="m29.87 14.92-.63 3.05-.89 3.6v.02s-.06.28-.14.69c-.1.49-.26 1.18-.41 1.89 0 .04-.02.1-.04.14-.16.87-.33 1.71-.47 2.22l-.22.2-.37.35.04-.3.02-.14v-.28l.06-.47.04-.31v-.28c.02-.69.02-1.59-.02-2.54-.02-.59-.04-1.2-.08-1.79-.02-.41-.08-.85-.14-1.26-.04-.28-.08-.55-.12-.81-.02-.14-.04-.28-.06-.39-.14-.69-.3-1.36-.49-1.97-.02-.1-.06-.2-.08-.3-.1-.28-.18-.55-.28-.83-.1-.3-.2-.59-.33-.89-.41-1.1-.92-2.05-1.48-2.72-.2-.28-.51-.57-.89-.81-.12-.1-.26-.18-.39-.26-.12-.08-.26-.16-.37-.22-.12-.06-.24-.12-.37-.16-.14-.08-.28-.14-.41-.18-.3-.12-.59-.22-.9-.28-.31-.08-.63-.14-.94-.14-1.04-.12-2.11.08-3.07.69-2.64 1.73-5.1 3.99-7.34 4.78-2.18.77-2.72 1.04-5.21.83h-.12c.06-.02.16-.04.31-.06 1.06-.22 4.09-.92 5.86-2.26 0 0 2.12-1.34 2.66-1.91.53-.57 1.46-1.38 2.14-1.79v-.91s-.37.31-.94.77c-.69.53-1.65 1.3-2.6 1.99-.81.59-1.59 1.14-2.2 1.5-1.34.79-2.07 1.4-3.23 1.75-.18.06-.35.12-.57.16-.35.08-.75.14-1.2.18v.02s-.04.04-.1.12c-.06.06-.14.18-.22.35 0 .02-.02.06-.02.08l-.02.02c-.1.26-.24.61-.31 1.06-.02.16-.04.33-.06.51-.02.12-.02.26-.04.39-.02.35-.06.77-.1 1.18-.02.33-.04.65-.06.96-.02.24-.04.45-.04.67l-.02.04c0 .14-.02.28-.02.41-.02.28-.02.53-.04.73v.04c0 .08-.02.16-.02.22 0 .16-.02.26-.02.26l.02.51v.49l.1 2.91v.37s-.14 0-.24-.08c-.06-.04-.14-.12-.2-.28 0 0-.49-.81-.61-1.4-.04-.22-.12-.61-.2-1-.1-.53-.18-1.1-.18-1.5v-.2s-.12-.37-.26-.87c-.33-1.2-.92-3.27-.98-3.76-.06-.55-.28-1.85-.35-2.89 2.22-.04 3.56-.45 5.73-1.48 2.18-1.04 7.67-5.13 7.67-5.13s2.62-1.79 5.88-1.65c3.25.12 3.86 2.46 3.86 2.46s.26-2.2-2.54-3.46c-2.79-1.26-5.88-.39-8.79.79l2.07-1.2c1.12-.65 2.38-1.04 3.66-1.04.91.02 1.91.14 2.89.61 0 0 1.1.41 1.93 1.32.85.89 1 1.77 1 1.77l.94-2.28c.02.16.04.3.06.45 0 0 2.77-.43 4.45 2.7 0 0 .73.92 1.04 2.46.3 1.53 0 3.72 0 3.72Z" style="fill:#606060;"/>
</svg>
