<svg id="Layer_2" xmlns="http://www.w3.org/2000/svg" width="24px" height="24px" viewBox="0 0 22 22">
<path class="cls-1" d="M11,.92c5.56,0,10.08,4.52,10.08,10.08s-4.52,10.08-10.08,10.08S.92,16.56.92,11,5.44.92,11,.92M11,0C4.92,0,0,4.92,0,11s4.92,11,11,11,11-4.92,11-11S17.08,0,11,0h0Z" fill="#9D9DAA"/>
<circle class="cls-1" cx="11" cy="11" r="7.56" fill="#9D9DAA"/>
<path class="cls-2" d="M13.41,10.28c.4.42.68.81.84,1.16.15.35.23.78.23,1.29,0,.97-.33,1.78-.99,2.43-.66.65-1.49.97-2.48.97s-1.82-.32-2.48-.97c-.66-.65-.99-1.46-.99-2.43,0-.49.08-.92.24-1.29.16-.37.44-.76.83-1.16-.35-.47-.53-.99-.53-1.56,0-.83.27-1.51.82-2.05.55-.54,1.25-.81,2.1-.81s1.57.27,2.12.8c.55.54.83,1.22.83,2.06,0,.56-.18,1.08-.53,1.56ZM10.99,11.61c-.32,0-.6.11-.83.34-.23.23-.35.5-.35.82,0,.35.11.64.34.87.22.23.51.35.85.35s.62-.12.85-.35c.22-.23.34-.52.34-.87,0-.32-.12-.59-.35-.82-.23-.23-.51-.34-.83-.34ZM10.97,7.97c-.21,0-.4.08-.56.24s-.23.34-.23.55c0,.24.08.44.23.6s.35.24.59.24c.21,0,.4-.08.56-.24s.23-.35.23-.57-.08-.42-.24-.58-.35-.23-.58-.23Z" fill="#fff"/>
</svg>