<svg id="Layer_2"  height="22px" xmlns="http://www.w3.org/2000/svg" viewBox="0 0 68.56 22"><defs><style>.cls-1{fill:#000;}.cls-1,.cls-2{stroke-width:0px;}.cls-2{fill:#fff;}</style></defs>
<path class="cls-1" d="M11,.92c5.56,0,10.08,4.52,10.08,10.08s-4.52,10.08-10.08,10.08S.92,16.56.92,11,5.44.92,11,.92M11,0C4.92,0,0,4.92,0,11s4.92,11,11,11,11-4.92,11-11S17.08,0,11,0h0Z"/>
<circle class="cls-1" cx="11" cy="11" r="7.56"/>
<path class="cls-2" d="M13.41,10.28c.4.42.68.81.84,1.16.15.35.23.78.23,1.29,0,.97-.33,1.78-.99,2.43-.66.65-1.49.97-2.48.97s-1.82-.32-2.48-.97c-.66-.65-.99-1.46-.99-2.43,0-.49.08-.92.24-1.29.16-.37.44-.76.83-1.16-.35-.47-.53-.99-.53-1.56,0-.83.27-1.51.82-2.05.55-.54,1.25-.81,2.1-.81s1.57.27,2.12.8c.55.54.83,1.22.83,2.06,0,.56-.18,1.08-.53,1.56ZM10.99,11.61c-.32,0-.6.11-.83.34-.23.23-.35.5-.35.82,0,.35.11.64.34.87.22.23.51.35.85.35s.62-.12.85-.35c.22-.23.34-.52.34-.87,0-.32-.12-.59-.35-.82-.23-.23-.51-.34-.83-.34ZM10.97,7.97c-.21,0-.4.08-.56.24s-.23.34-.23.55c0,.24.08.44.23.6s.35.24.59.24c.21,0,.4-.08.56-.24s.23-.35.23-.57-.08-.42-.24-.58-.35-.23-.58-.23Z"/>
<path class="cls-1" d="M33.23,7.26s-1-2.79-4.39-2.79c-.08,0-.17,0-.25,0-1.98.08-3.53,1.75-3.56,3.73l-.05,3.66c0,.22-.18.39-.4.39h-1.33c-.22,0-.4.18-.4.4v1.28c0,.22.18.4.4.4h1.5c.22,0,.4.18.4.4v2.39c0,.22.18.4.4.4h1.95c.22,0,.4-.18.4-.41-.01-.56-.03-1.59-.04-2.19,0-.24.21-.43.45-.4.58.07,1.2-.02,1.69-.15.71-.17,1.37-.49,1.94-.95,2.99-2.46,1.3-6.17,1.3-6.17ZM30.63,10.65s-.6,1.4-2.79,1.4v-3.99c0-.19.04-.37.13-.54.15-.29.46-.66,1.07-.66,0,0,1-.2,1.6.8,0,0,1,1.18,0,2.99Z"/>
<path class="cls-1" d="M38.15,7.28c-2.04,0-3.69,1.61-3.69,3.59s1.65,3.59,3.69,3.59,3.69-1.61,3.69-3.59-1.65-3.59-3.69-3.59ZM38.15,12.26c-.72,0-1.3-.67-1.3-1.5s.58-1.5,1.3-1.5,1.3.67,1.3,1.5-.58,1.5-1.3,1.5Z"/>
<path class="cls-1" d="M47.76,9.55l.72-.95c.14-.19.09-.45-.11-.58-.81-.5-2.87-1.47-4.69.25-1.69,1.59-1,3.5-.5,4.43.23.43.56.8.96,1.07.66.46,1.81.99,3.19.49,0,0,.52-.13,1.04-.5.2-.14.22-.43.05-.61l-.68-.68c-.12-.12-.29-.15-.44-.08-.4.18-1.23.41-1.96-.32-1-1-.4-2-.4-2,0,0,.71-1.42,2.3-.41.17.11.4.06.53-.1Z"/>
<path class="cls-1" d="M49.72,4.46h1.2c.22.01.4.19.4.41v4.89c0,.09.12.14.18.06l1.84-2.22c.08-.09.19-.14.31-.14h1.31c.34,0,.52.4.3.66l-1.79,2.09c-.12.14-.13.35-.02.5l2.33,3.1c.2.26,0,.64-.32.64h-1.51c-.13,0-.25-.06-.33-.17l-2.07-2.96c-.06-.08-.18-.04-.18.06l.02,2.67c0,.22-.18.4-.4.4h-1.26c-.22-.01-.4-.19-.4-.41V4.86c0-.22.18-.4.4-.4Z"/>
<path class="cls-1" d="M59.44,7.45s-.05,0-.07,0c-1.95.05-3.39,1.75-3.25,3.69.06.91.45,1.96,1.66,2.71,2.59,1.6,4.8-.46,4.8-.46l-1.16-1.35c-.59.48-1.24.61-1.24.61-1.6.4-2.2-1.2-2.2-1.2h4.89c.06,0,.1-.05.1-.1-.05-4.28-3.53-3.91-3.53-3.91ZM57.98,10.06s.32-.94,1.56-.94,1.66.94,1.66.94h-3.22Z"/>
<path class="cls-1" d="M64.53,7.37v-1c0-.22.18-.4.4-.39h1.21c.22.02.39.19.39.41v1.01c0,.22.18.39.39.39h1.15c.22,0,.39.18.39.39v.79c0,.22-.18.39-.39.39h-1.15c-.22,0-.39.18-.39.39v2.4s0,.62.8.62h.83c.22,0,.39.18.39.39v.84c0,.21-.16.38-.36.39-.5.04-1.41.09-1.96-.03-.9-.2-1.7-.61-1.71-1.62,0-.46,0-2.2,0-3,0-.22-.18-.39-.39-.39h-.01c-.22,0-.39-.18-.39-.39v-.81c0-.22.18-.4.4-.39h0c.22,0,.4-.17.4-.39Z"/>
</svg>