<svg width="20" height="22" viewBox="0 0 20 22" fill="none" xmlns="http://www.w3.org/2000/svg">
<path fill-rule="evenodd" clip-rule="evenodd" d="M18.99,6.31l-.65-1.12c-.55-.95-1.76-1.28-2.71-.73-.45.27-.99.34-1.5.21-.51-.13-.94-.46-1.21-.92-.17-.29-.26-.62-.27-.95.02-.54-.19-1.06-.56-1.44s-.89-.6-1.43-.6h-1.3c-.53,0-1.03.21-1.4.58-.37.37-.58.88-.58,1.41-.02,1.09-.9,1.96-1.99,1.96-.34,0-.66-.1-.95-.27-.95-.55-2.17-.22-2.71.73l-.7,1.14c-.55.95-.22,2.16.72,2.71.62.36,1,1.01,1,1.72s-.38,1.37-1,1.72c-.95.55-1.27,1.76-.72,2.7l.66,1.13c.26.46.69.81,1.2.95.51.14,1.06.08,1.52-.18.45-.26,1-.34,1.5-.2.51.14.94.47,1.2.93.17.29.26.62.27.95,0,1.1.89,1.99,1.99,1.99h1.3c1.1,0,1.99-.89,1.99-1.98,0-.53.21-1.04.58-1.41.37-.37.88-.58,1.41-.58.33,0,.66.1.95.27.95.55,2.16.22,2.71-.72l.69-1.14c.27-.46.34-1,.2-1.51-.14-.51-.47-.94-.93-1.21-.46-.26-.79-.7-.93-1.21-.14-.51-.06-1.05.2-1.51.17-.3.42-.55.72-.72.94-.55,1.26-1.76.72-2.7h0Z" stroke-width="1.5" stroke-linecap="round" stroke-linejoin="round" fill="none"/>
<path d="M12.75,10.75c0,1.51-1.23,2.74-2.74,2.74s-2.74-1.23-2.74-2.74,1.23-2.74,2.74-2.74,2.74,1.23,2.74,2.74Z" stroke-width="1.5" stroke-linecap="round" stroke-linejoin="round" fill="none"/>
</svg>
